<svg xmlns="http://www.w3.org/2000/svg" viewBox="0 0 245.54 245.54"><defs><style>.cls-1{fill:#fff;}.cls-2{fill:#862020;}.cls-3{fill:#231f20;}</style></defs><title>Logo MTP icon</title><g id="Layer_2" data-name="Layer 2"><g id="Layer_1-2" data-name="Layer 1"><circle class="cls-1" cx="122.77" cy="122.77" r="122.77"/><path class="cls-2" d="M142.16,117.77a4.75,4.75,0,0,0-5.35,2.88L119,164.18h-8.32L92.92,120.7a4.78,4.78,0,0,0-9.21,1.81v49.63H64.5V91.49H57.86v87.29H90.35V132l15.83,38.83h17.23l16-38.93v20.3h0v64.89A95.73,95.73,0,0,1,27,122.77a95.33,95.33,0,0,1,5.29-31.38H20.66A106.86,106.86,0,0,0,146,227.05v-9.56h0l0-95A4.73,4.73,0,0,0,142.16,117.77Z"/><path class="cls-3" d="M122.77,16a107,107,0,0,0-99,66.8h9.89l47.88,0a10.32,10.32,0,0,1,9.31,5.92l24,46.25L139,88.82l.06-.12a10.36,10.36,0,0,1,9.31-5.9l28.66,0c9.7,0,16.75,1.81,21,5.38S204,97,204,104.51s-2,12.77-6.18,16.07c-4.33,3.45-11.28,5.19-20.65,5.19h-12v46.37H154.71v6.64h17.17V132.41h5.32c10.91,0,19.25-2.23,24.78-6.63,5.77-4.58,8.69-11.74,8.69-21.27s-2.83-16.7-8.41-21.44S188.49,76.12,177,76.12l-28.66,0a17,17,0,0,0-15.28,9.64l-18.2,34.8L96.8,85.83a17,17,0,0,0-15.29-9.67H78v0H39.19a95.74,95.74,0,1,1,115.43,137v11.68A106.83,106.83,0,0,0,122.77,16Z"/><path class="cls-3" d="M189.68,113.36a12.68,12.68,0,0,0,3.08-8.9,12.19,12.19,0,0,0-3.19-8.85c-2.08-2.12-5-3.19-8.7-3.19H166.74V116.7h13.93C184.6,116.7,187.63,115.58,189.68,113.36ZM170.81,96.84h10.06c2.63,0,4.62.67,5.91,2a7.7,7.7,0,0,1,1.91,5.63,8.14,8.14,0,0,1-1.89,5.77c-1.25,1.36-3.31,2-6.13,2h-9.86Z"/></g></g></svg>