<svg xmlns="http://www.w3.org/2000/svg" viewBox="0 0 213.64 213.64"><defs><style>.cls-1{fill:#eaeaea;}</style></defs><title>Logo Grayscale</title><g id="Layer_2" data-name="Layer 2"><g id="Layer_1-2" data-name="Layer 1"><path class="cls-1" d="M126.21,101.82a4.75,4.75,0,0,0-5.35,2.88L103,148.23H94.69L77,104.75a4.78,4.78,0,0,0-9.21,1.81v49.63H48.55V75.53H41.91v87.3H74.4V116l15.83,38.83h17.23l16-38.93v20.3h0v64.88a95.74,95.74,0,0,1-107-125.68H4.71A106.86,106.86,0,0,0,130,211.1v-9.56h0l0-95A4.73,4.73,0,0,0,126.21,101.82Z"/><path class="cls-1" d="M106.82,0a107,107,0,0,0-99,66.8h9.89l47.87,0a10.32,10.32,0,0,1,9.32,5.92l24,46.25L123,72.87l.06-.12a10.35,10.35,0,0,1,9.31-5.9l28.66,0c9.7,0,16.75,1.81,21,5.37s6.06,8.82,6.06,16.38-2,12.77-6.18,16.07c-4.33,3.44-11.28,5.19-20.65,5.19h-12v46.37H138.76v6.64h17.17V116.46h5.32c10.91,0,19.24-2.23,24.78-6.63,5.77-4.58,8.69-11.74,8.69-21.27s-2.83-16.7-8.41-21.44-13.77-7-25.25-7l-28.66,0a17,17,0,0,0-15.28,9.64l-18.2,34.8L80.85,69.88a17,17,0,0,0-15.3-9.67H62v0H23.24a95.74,95.74,0,1,1,115.43,137V208.8A106.83,106.83,0,0,0,106.82,0Z"/><path class="cls-1" d="M173.73,97.41a12.68,12.68,0,0,0,3.08-8.9,12.19,12.19,0,0,0-3.19-8.85c-2.08-2.12-5-3.19-8.7-3.19H150.79v24.28h13.93C168.65,100.75,171.68,99.63,173.73,97.41ZM154.86,80.89h10.06c2.63,0,4.61.67,5.91,2a7.7,7.7,0,0,1,1.91,5.63,8.14,8.14,0,0,1-1.89,5.77c-1.25,1.35-3.31,2-6.13,2h-9.86Z"/></g></g></svg>