<svg xmlns="http://www.w3.org/2000/svg" viewBox="0 0 310.3 126.67"><defs><style>.cls-1,.cls-3{fill:#862020;}.cls-2{fill:#231f20;}.cls-3{font-size:32.26px;font-family:Montserrat-Bold, Montserrat;font-weight:700;letter-spacing:-0.05em;}.cls-4{letter-spacing:-0.05em;}</style></defs><title>Logo MTP + text (samping)</title><g id="Layer_2" data-name="Layer 2"><g id="Layer_1-2" data-name="Layer 1"><path class="cls-1" d="M74.83,60.37a2.82,2.82,0,0,0-3.17,1.71L61.08,87.89H56.15L45.64,62.11a2.84,2.84,0,0,0-5.47,1.07V92.61H28.79V44.79H24.85V96.54H44.11V68.8l9.39,23H63.72l9.46-23.09v12h0v38.47A56.76,56.76,0,0,1,9.7,44.73H2.79A63.35,63.35,0,0,0,77.1,125.16V119.5h0l0-56.34A2.81,2.81,0,0,0,74.83,60.37Z"/><path class="cls-2" d="M63.34,0A63.44,63.44,0,0,0,4.62,39.61h5.86l28.39,0a6.12,6.12,0,0,1,5.52,3.5L58.64,70.57,73,43.21l0-.07a6.13,6.13,0,0,1,5.52-3.5l17,0c5.75,0,9.93,1.07,12.42,3.19s3.6,5.23,3.6,9.71-1.2,7.57-3.67,9.53-6.69,3.07-12.24,3.07H88.52v27.5H82.28v3.93H92.45V69.05h3.16c6.47,0,11.41-1.32,14.69-3.93s5.16-7,5.16-12.61-1.68-9.9-5-12.71-8.17-4.13-15-4.13l-17,0a10.08,10.08,0,0,0-9.06,5.72L58.65,62.05,47.94,41.43a10.08,10.08,0,0,0-9.07-5.73H36.78v0h-23a56.77,56.77,0,1,1,68.44,81.21v6.92A63.34,63.34,0,0,0,63.34,0Z"/><path class="cls-2" d="M103,57.75a7.51,7.51,0,0,0,1.83-5.27,7.23,7.23,0,0,0-1.9-5.25,6.93,6.93,0,0,0-5.15-1.89H89.41v14.4h8.26A6.93,6.93,0,0,0,103,57.75ZM91.82,48h6a4.74,4.74,0,0,1,3.5,1.18,4.58,4.58,0,0,1,1.13,3.34,4.84,4.84,0,0,1-1.12,3.42,4.78,4.78,0,0,1-3.63,1.21H91.82Z"/><text class="cls-3" transform="translate(134.48 44.77)">Manunggal <tspan x="0" y="28.23">Teknik </tspan><tspan x="0" y="56.46">Pe</tspan><tspan class="cls-4" x="38.55" y="56.46">r</tspan><tspan x="50.07" y="56.46">sada</tspan></text></g></g></svg>