<svg xmlns="http://www.w3.org/2000/svg" viewBox="0 0 259.21 155.41"><defs><style>.cls-1,.cls-3{fill:#862020;}.cls-2{fill:#231f20;}.cls-3{font-size:20.84px;font-family:Montserrat-Bold, Montserrat;font-weight:700;letter-spacing:-0.05em;}.cls-4{letter-spacing:-0.05em;}</style></defs><title>Logo MTP + text (bawah)</title><g id="Layer_2" data-name="Layer 2"><g id="Layer_1-2" data-name="Layer 1"><path class="cls-1" d="M141.1,60.37a2.82,2.82,0,0,0-3.17,1.71L127.34,87.89h-4.93l-10.5-25.78a2.84,2.84,0,0,0-5.47,1.07V92.61H95.06V44.79H91.12V96.54h19.26V68.8l9.39,23H130l9.47-23.09v12h0v38.47A56.76,56.76,0,0,1,76,44.73H69.06a63.35,63.35,0,0,0,74.31,80.43V119.5h0l0-56.34A2.81,2.81,0,0,0,141.1,60.37Z"/><path class="cls-2" d="M129.6,0A63.45,63.45,0,0,0,70.88,39.61h5.87l28.39,0a6.12,6.12,0,0,1,5.52,3.5l14.25,27.43,14.31-27.36,0-.07a6.13,6.13,0,0,1,5.52-3.5l17,0c5.75,0,9.93,1.07,12.42,3.19s3.6,5.23,3.6,9.71-1.2,7.57-3.67,9.53-6.69,3.07-12.24,3.07h-7.1v27.5h-6.24v3.93h10.18V69.05h3.16c6.46,0,11.41-1.32,14.69-3.93s5.15-7,5.15-12.61-1.67-9.9-5-12.71-8.17-4.13-15-4.13l-17,0a10.08,10.08,0,0,0-9.06,5.72L124.92,62.05,114.21,41.43a10.09,10.09,0,0,0-9.07-5.73h-2.09v0h-23a56.77,56.77,0,1,1,68.44,81.21v6.92A63.34,63.34,0,0,0,129.6,0Z"/><path class="cls-2" d="M169.28,57.75a7.5,7.5,0,0,0,1.82-5.27,7.22,7.22,0,0,0-1.89-5.25,7,7,0,0,0-5.16-1.89h-8.38v14.4h8.26A6.94,6.94,0,0,0,169.28,57.75ZM158.09,48h6a4.71,4.71,0,0,1,3.5,1.18,4.54,4.54,0,0,1,1.14,3.34,4.84,4.84,0,0,1-1.12,3.42,4.79,4.79,0,0,1-3.64,1.21h-5.84Z"/><text class="cls-3" transform="translate(0 150.2)">Manunggal Teknik Pe<tspan class="cls-4" x="206.46" y="0">r</tspan><tspan x="213.9" y="0">sada</tspan></text></g></g></svg>